<svg xmlns="http://www.w3.org/2000/svg" xmlns:xlink="http://www.w3.org/1999/xlink" width="348" height="348" viewBox="0 0 348 348"><defs><style>.a,.f,.g,.m{fill:none;}.b,.r{fill:#324c5b;}.b{opacity:0.4;}.c{fill:#647286;}.d{fill:#c7cad1;}.e{fill:#fff;}.f{stroke:#333;stroke-width:8px;}.f,.g,.m{stroke-miterlimit:10;}.g{stroke:#00d398;stroke-width:12px;}.h{fill:#999;}.i{clip-path:url(#a);}.j{fill:#ecb98c;}.k{clip-path:url(#b);}.l{fill:#f6e2ca;}.m{stroke:#a57842;}.n{fill:#e05b4a;}.o{clip-path:url(#c);}.p{fill:#e8a244;}.q{fill:#eed8a2;}.s{fill:#efc849;}.t{fill:#d1933e;}</style><clipPath id="a"><rect class="a" width="348" height="348" transform="translate(0 0)"/></clipPath><clipPath id="b"><path class="a" d="M1531.039,565.1s2.236-12.519-8.944-34.107-7.452-25.472-10.435-40.583-7.081-37.129-7.081-37.129a95.776,95.776,0,0,0-11.553-25.9c-8.2-12.521-3.427-21.151,9.421-21.575,9.794-.323,20.764,22.869,24.491,44.025s27.951,25.041,35.032,22.019-13.416-39.29-13.044-54.4c0,0-39.49-26.251-33.9-41.363s30.173,8.981,42.471,15.458c0,0,19.38,8.2,26.833,26.768s14.162,30.223,17.888,35.835,10.061,9.067-2.61,27.2-21.613,50.514-16.4,78.145Z" transform="translate(-1488.97 -371.182)"/></clipPath><clipPath id="c"><path class="a" d="M1554.85,425.115,1454.275,301.465,1426.9,281.959l7.365,30.45L1540.04,437.073Z" transform="translate(-1426.9 -281.959)"/></clipPath></defs><g transform="translate(-1003.211 30.551)"><path class="b" d="M1316.076,277.809l14.935-1.972-14.047-106.389L1323.6,67.686l-20.245-1.32-3.546-26.859L1164.8,57.334l-33.064-2.155-.429,6.578-22.115,2.92,1.226,9.284L1098.929,75.3,1119.118,248.7l-2.891,44.348,8.116.529,2.153,18.5,101.065-11.767,80.528,5.25.961-14.738,8.426-.981Z" transform="translate(-54.081 -39.583)"/><g transform="translate(1038.257 -4.412)"><rect class="c" width="192.27" height="238.38" transform="translate(10.262 25.168) rotate(-7.522)"/><rect class="d" width="238.379" height="192.27" transform="matrix(0.065, -0.998, 0.998, 0.065, 17.298, 253.544)"/><g transform="translate(0 13.554)"><rect class="e" width="192.27" height="238.38" transform="matrix(0.993, -0.116, 0.116, 0.993, 0, 22.235)"/><g transform="translate(18.814 25.263)"><g transform="translate(0 0)"><rect class="f" width="31.961" height="31.961" transform="translate(0 13.791) rotate(-6.641)"/><path class="g" d="M1145.141,170.624l6.663,8.937,13.635-14.623" transform="translate(-1137.262 -144.858)"/><g transform="translate(45.169)"><rect class="h" width="112.42" height="3.375" transform="matrix(0.993, -0.116, 0.116, 0.993, 0, 13.001)"/><rect class="h" width="112.42" height="3.375" transform="matrix(0.993, -0.116, 0.116, 0.993, 1.16, 22.968)"/><rect class="h" width="58.891" height="3.375" transform="matrix(0.993, -0.116, 0.116, 0.993, 2.279, 32.577)"/></g></g><g transform="translate(4.771 40.982)"><rect class="f" width="31.961" height="31.961" transform="translate(0 13.791) rotate(-6.641)"/><path class="g" d="M1156.109,264.835l6.663,8.937,13.635-14.623" transform="translate(-1148.23 -239.068)"/><g transform="translate(45.169 0)"><rect class="h" width="112.42" height="3.375" transform="translate(0 13.001) rotate(-6.641)"/><rect class="h" width="112.42" height="3.375" transform="translate(1.16 22.969) rotate(-6.641)"/><rect class="h" width="58.891" height="3.375" transform="translate(2.279 32.577) rotate(-6.641)"/></g></g><g transform="translate(9.543 81.963)"><rect class="f" width="31.961" height="31.961" transform="translate(0 13.791) rotate(-6.642)"/><path class="g" d="M1167.078,359.045l6.663,8.937,13.635-14.622" transform="translate(-1159.199 -333.279)"/><g transform="translate(45.169 0)"><rect class="h" width="112.42" height="3.375" transform="translate(0 13.001) rotate(-6.641)"/><rect class="h" width="112.42" height="3.375" transform="translate(1.16 22.969) rotate(-6.641)"/><rect class="h" width="58.891" height="3.375" transform="translate(2.279 32.577) rotate(-6.641)"/></g></g><g transform="translate(14.314 122.945)"><rect class="f" width="31.961" height="31.962" transform="translate(0 13.79) rotate(-6.64)"/><path class="g" d="M1178.047,453.256l6.663,8.937,13.635-14.624" transform="translate(-1170.168 -427.489)"/><g transform="translate(45.169 0)"><rect class="h" width="112.42" height="3.375" transform="translate(0 13.001) rotate(-6.641)"/><rect class="h" width="112.42" height="3.375" transform="matrix(0.993, -0.116, 0.116, 0.993, 1.16, 22.968)"/><rect class="h" width="58.891" height="3.375" transform="translate(2.279 32.577) rotate(-6.641)"/></g></g><g transform="translate(19.085 163.926)"><rect class="f" width="31.961" height="31.961" transform="translate(0 13.791) rotate(-6.642)"/><path class="g" d="M1189.016,547.466l6.663,8.937,13.635-14.623" transform="translate(-1181.137 -521.699)"/><g transform="translate(45.169 0)"><rect class="h" width="112.42" height="3.375" transform="translate(0 13.002) rotate(-6.641)"/><rect class="h" width="112.42" height="3.375" transform="translate(1.16 22.968) rotate(-6.641)"/><rect class="h" width="58.891" height="3.375" transform="matrix(0.993, -0.116, 0.116, 0.993, 2.279, 32.577)"/></g></g></g></g></g><g transform="translate(1003.211 -30.551)"><g class="i" transform="translate(0 0)"><path class="b" d="M1565.474,502.036q1.124-1.83,2.3-3.508c12.67-18.133,6.336-21.588,2.61-27.2s-10.436-17.27-17.888-35.835-26.832-26.768-26.832-26.768c-12.3-6.477-36.882-30.57-42.471-15.458a11.21,11.21,0,0,0,.4,7.867l-26.085-32.07-27.375-19.505,7.365,30.45,37.669,44.4a8.072,8.072,0,0,0-4.555-1.418c-12.847.424-17.619,9.054-9.421,21.575a95.772,95.772,0,0,1,11.553,25.9s4.1,22.019,7.081,37.13-.746,19,10.434,40.583,8.944,34.107,8.944,34.107l52.173-5.612c-3.516-18.623-.595-39.4,5.559-56.519a1.579,1.579,0,0,0,1.412-.168l11.8-9.141c.853-.661.567-2.393-.638-3.87Zm-48.387-67.406a36.149,36.149,0,0,0,1.425,9.44l-18.3-22.5A177.141,177.141,0,0,0,1517.087,434.63ZM1495.1,467.01c-2.038-11.565-6.24-23.738-11.231-32.345l46.161,54.4C1522.826,492.014,1498.809,488.07,1495.1,467.01Z" transform="translate(-1244.42 -184.211)"/><g transform="translate(184.304 135.942)"><g transform="translate(27.001 38.812)"><path class="j" d="M1531.039,565.1s2.236-12.519-8.944-34.107-7.452-25.472-10.435-40.583-7.081-37.129-7.081-37.129a95.776,95.776,0,0,0-11.553-25.9c-8.2-12.521-3.427-21.151,9.421-21.575,9.794-.323,20.764,22.869,24.491,44.025s27.951,25.041,35.032,22.019-13.416-39.29-13.044-54.4c0,0-39.49-26.251-33.9-41.363s30.173,8.981,42.471,15.458c0,0,19.38,8.2,26.833,26.768s14.162,30.223,17.888,35.835,10.061,9.067-2.61,27.2-21.613,50.514-16.4,78.145Z" transform="translate(-1488.97 -371.182)"/><g class="k"><path class="l" d="M1474.876,482.527s-8.685-14.439.929-14.954,33,22.158,8.857,25.907Z" transform="translate(-1478.974 -425.638)"/><path class="m" d="M1631.287,396.39c-1.632,7.187,23.835,31.641,27.753,37.693,5.551,8.322,7.51,16.644,10.449,26.479" transform="translate(-1569.337 -385.424)"/><path class="l" d="M1568.273,361.2s-11.754,6.984,0,14.623,13.713-.23,9.469-6.887S1568.273,361.2,1568.273,361.2Z" transform="translate(-1530.825 -365.542)"/></g></g><g transform="translate(0 0)"><path class="n" d="M1671.131,603.528c-1.2-1.475-1.489-3.207-.636-3.869l11.8-9.14c.852-.661,2.521,0,3.725,1.476l17.609,21.572c1.205,1.476,1.491,3.209.638,3.87l-11.8,9.141c-.853.661-2.521,0-3.726-1.476Z" transform="translate(-1564.253 -456.15)"/><g class="o"><path class="p" d="M1554.85,430.611l-86.389-106.936L1426.9,287.454l23.565,47.1,89.575,108.01Z" transform="translate(-1426.9 -285.064)"/><path class="q" d="M1449.3,294.247c.869,2.311-16.8-7.276-16.8-7.276l-9.57-3.546,1.45,10.15,1.274,12.955s-34.017-41.442-33.163-42.188,2.241-20.394,8.416-19.05,38.029,33.132,41.147,35.011S1449.3,294.247,1449.3,294.247Z" transform="translate(-1407.455 -261.204)"/><path class="r" d="M1413.958,261.177l-10.936,7.81s-19.934-30.793-19.229-32.279S1413.958,261.177,1413.958,261.177Z" transform="translate(-1402.534 -256.357)"/><path class="s" d="M1583.663,454.267l-101.9-125.3-2.1-9.413s36.514,25.353,39.6,28.126,30.473,29.351,33.211,32.313S1575.312,426,1577.5,427.9s14.4,23.434,14.4,23.434Z" transform="translate(-1456.71 -303.2)"/><path class="t" d="M1555.268,470.27,1454.146,347.75s-8.88-7.2-8.99-6.6,1.463,24.126,3.652,26.7,24.263,36.875,33.39,44.717,32.117,39.752,39.989,46.7,40.164,27.207,40.164,27.207Z" transform="translate(-1437.212 -315.38)"/></g></g></g></g></g></g></svg>