<svg xmlns="http://www.w3.org/2000/svg" width="13" height="16.96" viewBox="0 0 13 16.96"><defs><style>.a{fill:#fff;}</style></defs><path class="a" d="M-2326.5-1044.04h0a20.739,20.739,0,0,1-3.386-3.838,24.8,24.8,0,0,1-2.149-3.4,7.4,7.4,0,0,1-.965-3.153,6.563,6.563,0,0,1,1.9-4.646,6.424,6.424,0,0,1,4.6-1.924,6.423,6.423,0,0,1,4.6,1.924,6.563,6.563,0,0,1,1.9,4.646,7.408,7.408,0,0,1-.963,3.153,24.8,24.8,0,0,1-2.147,3.4A20.318,20.318,0,0,1-2326.5-1044.04Zm.209-13.8a2.856,2.856,0,0,0-2.935,2.763,2.857,2.857,0,0,0,2.935,2.764,2.857,2.857,0,0,0,2.935-2.764A2.857,2.857,0,0,0-2326.29-1057.842Z" transform="translate(2333 1061)"/></svg>