<svg xmlns="http://www.w3.org/2000/svg" width="25.606" height="31.493" viewBox="0 0 25.606 31.493"><defs><style>.a{opacity:0.3;}.b{fill:#fff;}</style></defs><g class="a"><path class="b" d="M-4821.4,1089a.873.873,0,0,0-.872.872v13.815a.866.866,0,0,0,.254.617.865.865,0,0,0,.616.256h0a.866.866,0,0,0,.615-.254.869.869,0,0,0,.257-.619v-13.815A.873.873,0,0,0-4821.4,1089Z" transform="translate(4838.509 -1077.696)"/><path class="b" d="M-4882.506,1089a.873.873,0,0,0-.872.872v13.815a.873.873,0,0,0,.872.872.873.873,0,0,0,.872-.872v-13.815A.873.873,0,0,0-4882.506,1089Z" transform="translate(4890.992 -1077.696)"/><path class="b" d="M-4911.81,1014.865a2.943,2.943,0,0,0-2.814-2.164h-3.613v-.776a3.015,3.015,0,0,0-2.993-3.029h-6.552a2.993,2.993,0,0,0-2.113.866,2.993,2.993,0,0,0-.9,2.123v.812h-3.6a2.936,2.936,0,0,0-2.916,2.951,2.943,2.943,0,0,0,2.059,2.782v17.906a4.157,4.157,0,0,0,1.112,2.88,3.755,3.755,0,0,0,2.714,1.174h13.834a3.756,3.756,0,0,0,2.715-1.175,4.155,4.155,0,0,0,1.111-2.877v-17.9a2.911,2.911,0,0,0,1.672-1.343A2.914,2.914,0,0,0-4911.81,1014.865Zm-4.253,23.054a2.16,2.16,0,0,1-1.5.726l-.041,0h-13.826a2.176,2.176,0,0,1-2.088-2.255l0-.054v-17.8h18v17.814A2.161,2.161,0,0,1-4916.063,1037.919Zm-12.987-26a1.269,1.269,0,0,1,1.245-1.288h6.539a1.266,1.266,0,0,1,1.288,1.247c0,.014,0,.027,0,.043v.772h-9.071Zm15.594,3.694a1.176,1.176,0,0,1-1.175,1.175H-4934.4a1.176,1.176,0,0,1-1.175-1.175,1.176,1.176,0,0,1,1.175-1.175h19.765A1.176,1.176,0,0,1-4913.456,1015.615Z" transform="translate(4937.313 -1008.895)"/><path class="b" d="M-4851.947,1089a.873.873,0,0,0-.872.872v13.815a.873.873,0,0,0,.872.872.874.874,0,0,0,.873-.872v-13.815A.873.873,0,0,0-4851.947,1089Z" transform="translate(4864.746 -1077.696)"/></g></svg>